# Rhino

mtllib ecbpi.mtl
usemtl diffuse_0
v -0.12073201751708984 0 0.068937652587890627
v -0.12073201751708984 0 -0.068837608337402351
v 0.03136427116394043 0 -0.068837608337402351
v 0.03136427116394043 0 0.068937652587890627
v -0.12073201751708984 0 -0.068837608337402351
v -0.12073201751708984 0 0.068937652587890627
v -0.12073201751708984 0.16629600524902344 0.068937652587890627
v -0.12073201751708984 0.16629600524902344 -0.068837608337402351
v -0.12073201751708984 0 0.068937652587890627
v 0.03136427116394043 0 0.068937652587890627
v 0.03136427116394043 0.16629600524902344 0.068937652587890627
v -0.12073201751708984 0.16629600524902344 0.068937652587890627
v 0.03136427116394043 0 0.068937652587890627
v 0.03136427116394043 0 -0.068837608337402351
v 0.03136427116394043 0.16629600524902344 -0.068837608337402351
v 0.03136427116394043 0.16629600524902344 0.068937652587890627
v 0.03136427116394043 0 -0.068837608337402351
v -0.12073201751708984 0 -0.068837608337402351
v -0.12073201751708984 0.16629600524902344 -0.068837608337402351
v 0.03136427116394043 0.16629600524902344 -0.068837608337402351
v -0.12073201751708984 0.16629600524902344 0.068937652587890627
v 0.03136427116394043 0.16629600524902344 0.068937652587890627
v 0.03136427116394043 0.16629600524902344 -0.068837608337402351
v -0.12073201751708984 0.16629600524902344 -0.068837608337402351
vn 0 -1 0
vn 0 -1 0
vn 0 -1 0
vn 0 -1 0
vn -1 0 0
vn -1 0 0
vn -1 0 0
vn -1 0 0
vn 0 0 1
vn 0 0 1
vn 0 0 1
vn 0 0 1
vn 1 0 0
vn 1 0 0
vn 1 0 0
vn 1 0 0
vn 0 0 -1
vn 0 0 -1
vn 0 0 -1
vn 0 0 -1
vn 0 1 0
vn 0 1 0
vn 0 1 0
vn 0 1 0
f 1//1 2//2 3//3 4//4
f 5//5 6//6 7//7 8//8
f 9//9 10//10 11//11 12//12
f 13//13 14//14 15//15 16//16
f 17//17 18//18 19//19 20//20
f 21//21 22//22 23//23 24//24
